<svg width="50" height="50" viewBox="0 0 50 50" fill="none" xmlns="http://www.w3.org/2000/svg">
<path d="M18.75 6.25H8.33333C7.7808 6.25 7.25089 6.46949 6.86019 6.86019C6.46949 7.25089 6.25 7.7808 6.25 8.33333V18.75C6.25 19.3025 6.46949 19.8324 6.86019 20.2231C7.25089 20.6138 7.7808 20.8333 8.33333 20.8333H18.75C19.3025 20.8333 19.8324 20.6138 20.2231 20.2231C20.6138 19.8324 20.8333 19.3025 20.8333 18.75V8.33333C20.8333 7.7808 20.6138 7.25089 20.2231 6.86019C19.8324 6.46949 19.3025 6.25 18.75 6.25ZM18.75 29.1667H8.33333C7.7808 29.1667 7.25089 29.3862 6.86019 29.7769C6.46949 30.1676 6.25 30.6975 6.25 31.25V41.6667C6.25 42.2192 6.46949 42.7491 6.86019 43.1398C7.25089 43.5305 7.7808 43.75 8.33333 43.75H18.75C19.3025 43.75 19.8324 43.5305 20.2231 43.1398C20.6138 42.7491 20.8333 42.2192 20.8333 41.6667V31.25C20.8333 30.6975 20.6138 30.1676 20.2231 29.7769C19.8324 29.3862 19.3025 29.1667 18.75 29.1667ZM36.4583 20.8333C37.4159 20.8333 38.3641 20.6447 39.2487 20.2783C40.1334 19.9118 40.9372 19.3747 41.6143 18.6977C42.2914 18.0206 42.8285 17.2167 43.195 16.3321C43.5614 15.4474 43.75 14.4992 43.75 13.5417C43.75 12.5841 43.5614 11.6359 43.195 10.7513C42.8285 9.8666 42.2914 9.06277 41.6143 8.38568C40.9372 7.70859 40.1334 7.17149 39.2487 6.80504C38.3641 6.4386 37.4159 6.25 36.4583 6.25C34.5245 6.25 32.6698 7.01823 31.3023 8.38568C29.9349 9.75313 29.1667 11.6078 29.1667 13.5417C29.1667 15.4755 29.9349 17.3302 31.3023 18.6977C32.6698 20.0651 34.5245 20.8333 36.4583 20.8333ZM41.6667 29.1667H31.25C30.6975 29.1667 30.1676 29.3862 29.7769 29.7769C29.3862 30.1676 29.1667 30.6975 29.1667 31.25V41.6667C29.1667 42.2192 29.3862 42.7491 29.7769 43.1398C30.1676 43.5305 30.6975 43.75 31.25 43.75H41.6667C42.2192 43.75 42.7491 43.5305 43.1398 43.1398C43.5305 42.7491 43.75 42.2192 43.75 41.6667V31.25C43.75 30.6975 43.5305 30.1676 43.1398 29.7769C42.7491 29.3862 42.2192 29.1667 41.6667 29.1667Z" stroke="black" stroke-width="4" stroke-linejoin="round"/>
</svg>
