<svg width="50" height="37" viewBox="0 0 50 37" fill="none" xmlns="http://www.w3.org/2000/svg">
<path d="M46.1538 0H3.84615C2.82609 0 1.84781 0.350446 1.12651 0.974245C0.405218 1.59804 0 2.4441 0 3.32628V33.2628C0 34.145 0.405218 34.9911 1.12651 35.6149C1.84781 36.2387 2.82609 36.5891 3.84615 36.5891H7.0649C7.42886 36.5892 7.78538 36.5 8.09303 36.3318C8.40069 36.1636 8.64684 35.9234 8.80288 35.639C9.73803 33.9316 11.2144 32.4888 13.0604 31.4784C14.9064 30.4681 17.0462 29.9317 19.2308 29.9317C21.4154 29.9317 23.5551 30.4681 25.4011 31.4784C27.2471 32.4888 28.7235 33.9316 29.6587 35.639C29.8147 35.9234 30.0609 36.1636 30.3685 36.3318C30.6762 36.5 31.0327 36.5892 31.3966 36.5891H46.1538C47.1739 36.5891 48.1522 36.2387 48.8735 35.6149C49.5948 34.9911 50 34.145 50 33.2628V3.32628C50 2.4441 49.5948 1.59804 48.8735 0.974245C48.1522 0.350446 47.1739 0 46.1538 0ZM13.4615 21.6208C13.4615 20.634 13.7999 19.6694 14.4338 18.8489C15.0678 18.0284 15.9688 17.3888 17.023 17.0112C18.0772 16.6336 19.2372 16.5348 20.3563 16.7273C21.4754 16.9198 22.5034 17.395 23.3102 18.0928C24.1171 18.7906 24.6665 19.6796 24.8891 20.6474C25.1118 21.6153 24.9975 22.6185 24.5608 23.5302C24.1242 24.4419 23.3847 25.2211 22.436 25.7694C21.4872 26.3176 20.3718 26.6103 19.2308 26.6103C17.7007 26.6103 16.2332 26.0846 15.1513 25.1489C14.0694 24.2132 13.4615 22.9441 13.4615 21.6208ZM46.1538 33.2628H32.5553C30.9494 30.875 28.5286 28.9753 25.625 27.8244C27.0807 26.7033 28.1082 25.2262 28.5711 23.5887C29.034 21.9512 28.9105 20.2307 28.217 18.6553C27.5235 17.0798 26.2928 15.7239 24.688 14.7672C23.0831 13.8104 21.18 13.2981 19.2308 13.2981C17.2816 13.2981 15.3784 13.8104 13.7736 14.7672C12.1687 15.7239 10.938 17.0798 10.2445 18.6553C9.55104 20.2307 9.42757 21.9512 9.89047 23.5887C10.3534 25.2262 11.3808 26.7033 12.8365 27.8244C9.93294 28.9753 7.51218 30.875 5.90625 33.2628H3.84615V3.32628H46.1538V33.2628ZM7.69231 11.642V8.31571C7.69231 7.87461 7.89492 7.45159 8.25556 7.13969C8.61621 6.82779 9.10535 6.65256 9.61538 6.65256H40.3846C40.8946 6.65256 41.3838 6.82779 41.7444 7.13969C42.1051 7.45159 42.3077 7.87461 42.3077 8.31571V28.2734C42.3077 28.7145 42.1051 29.1375 41.7444 29.4494C41.3838 29.7613 40.8946 29.9365 40.3846 29.9365H36.5385C36.0284 29.9365 35.5393 29.7613 35.1786 29.4494C34.818 29.1375 34.6154 28.7145 34.6154 28.2734C34.6154 27.8323 34.818 27.4093 35.1786 27.0974C35.5393 26.7855 36.0284 26.6103 36.5385 26.6103H38.4615V9.97885H11.5385V11.642C11.5385 12.0831 11.3359 12.5061 10.9752 12.818C10.6146 13.1299 10.1254 13.3051 9.61538 13.3051C9.10535 13.3051 8.61621 13.1299 8.25556 12.818C7.89492 12.5061 7.69231 12.0831 7.69231 11.642Z" fill="black"/>
</svg>
